# Blender v2.79 (sub 0) OBJ File: 'arcade2_p3.blend'
# www.blender.org
mtllib Arcade2_screen.mtl
o Cube.001_Cube.004
v 0.694728 2.783313 0.554760
v 0.694728 3.702927 0.408559
v -0.698587 2.783313 0.554759
v -0.698587 3.702927 0.408558
v -0.559256 2.782581 0.569367
v -0.419924 2.781849 0.584979
v -0.280593 2.781230 0.599154
v -0.141261 2.780809 0.609450
v -0.001930 2.780652 0.613425
v 0.137402 2.780809 0.609450
v 0.276733 2.781230 0.599154
v 0.416065 2.781849 0.584979
v 0.555396 2.782581 0.569367
v -0.559256 3.706910 0.423166
v -0.419924 3.711128 0.438778
v -0.280593 3.714910 0.452953
v -0.141261 3.717654 0.463249
v -0.001930 3.718720 0.467223
v 0.137402 3.717654 0.463249
v 0.276733 3.714910 0.452953
v 0.416065 3.711128 0.438778
v 0.555396 3.706910 0.423166
vt 0.999918 0.000082
vt 0.900000 1.000000
vt 0.899935 0.000082
vt 0.000082 0.000082
vt 0.100000 1.000000
vt 0.000000 1.000000
vt 0.100065 0.000082
vt 0.200000 1.000000
vt 0.200049 0.000082
vt 0.300000 1.000000
vt 0.300033 0.000082
vt 0.400000 1.000000
vt 0.400016 0.000082
vt 0.500000 1.000000
vt 0.599984 0.000082
vt 0.500000 0.000082
vt 0.699967 0.000082
vt 0.600000 1.000000
vt 0.799951 0.000082
vt 0.700000 1.000000
vt 0.800000 1.000000
vt 1.000000 1.000000
vn 0.1022 0.1554 0.9825
vn -0.1074 0.1561 0.9819
vn -0.1146 0.1552 0.9812
vn -0.1041 0.1546 0.9825
vn -0.0758 0.1543 0.9851
vn -0.0294 0.1541 0.9876
vn 0.0280 0.1539 0.9877
vn 0.0724 0.1538 0.9855
vn 0.0993 0.1539 0.9831
vn 0.1092 0.1545 0.9819
vn 0.1074 0.1561 0.9819
vn -0.1022 0.1554 0.9825
vn -0.1092 0.1545 0.9819
vn -0.0993 0.1539 0.9831
vn -0.0724 0.1538 0.9855
vn -0.0280 0.1539 0.9877
vn 0.0294 0.1541 0.9876
vn 0.0758 0.1543 0.9851
vn 0.1041 0.1546 0.9825
vn 0.1146 0.1552 0.9812
usemtl Material.001
s off
f 1/1/1 22/2/1 13/3/1
f 3/4/2 14/5/2 4/6/2
f 5/7/3 15/8/3 14/5/3
f 6/9/4 16/10/4 15/8/4
f 7/11/5 17/12/5 16/10/5
f 8/13/6 18/14/6 17/12/6
f 10/15/7 18/14/7 9/16/7
f 11/17/8 19/18/8 10/15/8
f 12/19/9 20/20/9 11/17/9
f 13/3/10 21/21/10 12/19/10
f 1/1/11 2/22/11 22/2/11
f 3/4/12 5/7/12 14/5/12
f 5/7/13 6/9/13 15/8/13
f 6/9/14 7/11/14 16/10/14
f 7/11/15 8/13/15 17/12/15
f 8/13/16 9/16/16 18/14/16
f 10/15/17 19/18/17 18/14/17
f 11/17/18 20/20/18 19/18/18
f 12/19/19 21/21/19 20/20/19
f 13/3/20 22/2/20 21/21/20
